<mxfile host="app.diagrams.net" agent="Mozilla/5.0 (Macintosh; Intel Mac OS X 10_15_7) AppleWebKit/537.36 (KHTML, like Gecko) Chrome/136.0.0.0 Safari/537.36" version="27.1.5">
  <diagram name="第 1 页" id="j_TaxyUEMeLFeXK7EujY">
    <mxGraphModel dx="907" dy="620" grid="1" gridSize="10" guides="1" tooltips="1" connect="1" arrows="1" fold="1" page="1" pageScale="1" pageWidth="827" pageHeight="1169" math="0" shadow="0">
      <root>
        <mxCell id="0" />
        <mxCell id="1" parent="0" />
        <mxCell id="S2aKsC0YRiiLuyDRzjJa-1" value="工作端" style="rounded=0;whiteSpace=wrap;html=1;strokeWidth=2;" parent="1" vertex="1">
          <mxGeometry x="70" y="120" width="70" height="20" as="geometry" />
        </mxCell>
        <mxCell id="S2aKsC0YRiiLuyDRzjJa-2" value="" style="shape=umlActor;verticalLabelPosition=bottom;verticalAlign=top;html=1;outlineConnect=0;" parent="1" vertex="1">
          <mxGeometry x="90" y="60" width="30" height="50" as="geometry" />
        </mxCell>
        <mxCell id="S2aKsC0YRiiLuyDRzjJa-4" value="" style="endArrow=none;dashed=1;html=1;dashPattern=1 3;strokeWidth=2;rounded=0;" parent="1" edge="1">
          <mxGeometry width="50" height="50" relative="1" as="geometry">
            <mxPoint x="105" y="540" as="sourcePoint" />
            <mxPoint x="104.5" y="140" as="targetPoint" />
          </mxGeometry>
        </mxCell>
        <mxCell id="S2aKsC0YRiiLuyDRzjJa-5" value="" style="rounded=0;whiteSpace=wrap;html=1;fillColor=default;strokeColor=#b85450;strokeWidth=2;" parent="1" vertex="1">
          <mxGeometry x="90" y="180" width="30" height="320" as="geometry" />
        </mxCell>
        <mxCell id="S2aKsC0YRiiLuyDRzjJa-6" value="小智server" style="rounded=0;whiteSpace=wrap;html=1;strokeWidth=2;" parent="1" vertex="1">
          <mxGeometry x="210" y="120" width="70" height="20" as="geometry" />
        </mxCell>
        <mxCell id="S2aKsC0YRiiLuyDRzjJa-8" value="" style="endArrow=none;dashed=1;html=1;dashPattern=1 3;strokeWidth=2;rounded=0;" parent="1" source="S2aKsC0YRiiLuyDRzjJa-9" edge="1">
          <mxGeometry width="50" height="50" relative="1" as="geometry">
            <mxPoint x="245" y="540" as="sourcePoint" />
            <mxPoint x="244.5" y="140" as="targetPoint" />
          </mxGeometry>
        </mxCell>
        <mxCell id="S2aKsC0YRiiLuyDRzjJa-10" value="ASR" style="rounded=0;whiteSpace=wrap;html=1;strokeWidth=2;" parent="1" vertex="1">
          <mxGeometry x="350" y="120" width="70" height="20" as="geometry" />
        </mxCell>
        <mxCell id="S2aKsC0YRiiLuyDRzjJa-11" value="" style="endArrow=none;dashed=1;html=1;dashPattern=1 3;strokeWidth=2;rounded=0;" parent="1" source="S2aKsC0YRiiLuyDRzjJa-12" edge="1">
          <mxGeometry width="50" height="50" relative="1" as="geometry">
            <mxPoint x="385" y="540" as="sourcePoint" />
            <mxPoint x="384.5" y="140" as="targetPoint" />
          </mxGeometry>
        </mxCell>
        <mxCell id="S2aKsC0YRiiLuyDRzjJa-13" value="DIFY" style="rounded=0;whiteSpace=wrap;html=1;strokeWidth=2;" parent="1" vertex="1">
          <mxGeometry x="490" y="120" width="70" height="20" as="geometry" />
        </mxCell>
        <mxCell id="S2aKsC0YRiiLuyDRzjJa-14" value="" style="endArrow=none;dashed=1;html=1;dashPattern=1 3;strokeWidth=2;rounded=0;" parent="1" edge="1">
          <mxGeometry width="50" height="50" relative="1" as="geometry">
            <mxPoint x="524.9285714285713" y="320" as="sourcePoint" />
            <mxPoint x="524.5" y="140" as="targetPoint" />
          </mxGeometry>
        </mxCell>
        <mxCell id="S2aKsC0YRiiLuyDRzjJa-16" value="TTS" style="rounded=0;whiteSpace=wrap;html=1;strokeWidth=2;" parent="1" vertex="1">
          <mxGeometry x="640" y="120" width="70" height="20" as="geometry" />
        </mxCell>
        <mxCell id="S2aKsC0YRiiLuyDRzjJa-17" value="" style="endArrow=none;dashed=1;html=1;dashPattern=1 3;strokeWidth=2;rounded=0;" parent="1" source="S2aKsC0YRiiLuyDRzjJa-18" edge="1">
          <mxGeometry width="50" height="50" relative="1" as="geometry">
            <mxPoint x="675" y="540" as="sourcePoint" />
            <mxPoint x="674.5" y="140" as="targetPoint" />
          </mxGeometry>
        </mxCell>
        <mxCell id="S2aKsC0YRiiLuyDRzjJa-19" value="" style="endArrow=classic;html=1;rounded=0;entryX=0;entryY=0.5;entryDx=0;entryDy=0;" parent="1" target="S2aKsC0YRiiLuyDRzjJa-9" edge="1">
          <mxGeometry width="50" height="50" relative="1" as="geometry">
            <mxPoint x="121" y="210" as="sourcePoint" />
            <mxPoint x="233.99" y="212.01999999999998" as="targetPoint" />
          </mxGeometry>
        </mxCell>
        <mxCell id="S2aKsC0YRiiLuyDRzjJa-20" value="websocket" style="edgeLabel;html=1;align=center;verticalAlign=middle;resizable=0;points=[];" parent="S2aKsC0YRiiLuyDRzjJa-19" vertex="1" connectable="0">
          <mxGeometry x="-0.1748" y="2" relative="1" as="geometry">
            <mxPoint as="offset" />
          </mxGeometry>
        </mxCell>
        <mxCell id="S2aKsC0YRiiLuyDRzjJa-21" value="" style="endArrow=none;dashed=1;html=1;dashPattern=1 3;strokeWidth=2;rounded=0;" parent="1" source="S2aKsC0YRiiLuyDRzjJa-28" target="S2aKsC0YRiiLuyDRzjJa-9" edge="1">
          <mxGeometry width="50" height="50" relative="1" as="geometry">
            <mxPoint x="245" y="540" as="sourcePoint" />
            <mxPoint x="244.5" y="140" as="targetPoint" />
          </mxGeometry>
        </mxCell>
        <mxCell id="S2aKsC0YRiiLuyDRzjJa-9" value="" style="rounded=0;whiteSpace=wrap;html=1;fillColor=default;strokeColor=#b85450;strokeWidth=2;" parent="1" vertex="1">
          <mxGeometry x="230" y="190" width="30" height="40" as="geometry" />
        </mxCell>
        <mxCell id="S2aKsC0YRiiLuyDRzjJa-22" value="vad" style="text;html=1;align=center;verticalAlign=middle;resizable=0;points=[];autosize=1;strokeColor=none;fillColor=none;" parent="1" vertex="1">
          <mxGeometry x="260" y="195" width="40" height="30" as="geometry" />
        </mxCell>
        <mxCell id="S2aKsC0YRiiLuyDRzjJa-23" value="" style="endArrow=none;dashed=1;html=1;dashPattern=1 3;strokeWidth=2;rounded=0;" parent="1" target="S2aKsC0YRiiLuyDRzjJa-12" edge="1">
          <mxGeometry width="50" height="50" relative="1" as="geometry">
            <mxPoint x="385" y="540" as="sourcePoint" />
            <mxPoint x="384.5" y="140" as="targetPoint" />
          </mxGeometry>
        </mxCell>
        <mxCell id="S2aKsC0YRiiLuyDRzjJa-12" value="" style="rounded=0;whiteSpace=wrap;html=1;fillColor=default;strokeColor=#b85450;strokeWidth=2;" parent="1" vertex="1">
          <mxGeometry x="370" y="240" width="30" height="40" as="geometry" />
        </mxCell>
        <mxCell id="S2aKsC0YRiiLuyDRzjJa-24" value="" style="endArrow=classic;html=1;rounded=0;entryX=0;entryY=0.5;entryDx=0;entryDy=0;" parent="1" edge="1">
          <mxGeometry width="50" height="50" relative="1" as="geometry">
            <mxPoint x="251" y="250" as="sourcePoint" />
            <mxPoint x="370" y="250" as="targetPoint" />
          </mxGeometry>
        </mxCell>
        <mxCell id="S2aKsC0YRiiLuyDRzjJa-25" value="websocket" style="edgeLabel;html=1;align=center;verticalAlign=middle;resizable=0;points=[];" parent="S2aKsC0YRiiLuyDRzjJa-24" vertex="1" connectable="0">
          <mxGeometry x="-0.1748" y="2" relative="1" as="geometry">
            <mxPoint as="offset" />
          </mxGeometry>
        </mxCell>
        <mxCell id="S2aKsC0YRiiLuyDRzjJa-26" value="" style="endArrow=classic;html=1;rounded=0;" parent="1" edge="1">
          <mxGeometry width="50" height="50" relative="1" as="geometry">
            <mxPoint x="370" y="270" as="sourcePoint" />
            <mxPoint x="250" y="270" as="targetPoint" />
          </mxGeometry>
        </mxCell>
        <mxCell id="S2aKsC0YRiiLuyDRzjJa-27" value="response" style="edgeLabel;html=1;align=center;verticalAlign=middle;resizable=0;points=[];" parent="S2aKsC0YRiiLuyDRzjJa-26" vertex="1" connectable="0">
          <mxGeometry x="-0.1167" y="-1" relative="1" as="geometry">
            <mxPoint as="offset" />
          </mxGeometry>
        </mxCell>
        <mxCell id="S2aKsC0YRiiLuyDRzjJa-29" value="" style="endArrow=none;dashed=1;html=1;dashPattern=1 3;strokeWidth=2;rounded=0;" parent="1" source="S2aKsC0YRiiLuyDRzjJa-36" target="S2aKsC0YRiiLuyDRzjJa-28" edge="1">
          <mxGeometry width="50" height="50" relative="1" as="geometry">
            <mxPoint x="245" y="540" as="sourcePoint" />
            <mxPoint x="245" y="230" as="targetPoint" />
          </mxGeometry>
        </mxCell>
        <mxCell id="S2aKsC0YRiiLuyDRzjJa-28" value="" style="rounded=0;whiteSpace=wrap;html=1;fillColor=default;strokeColor=#b85450;strokeWidth=2;" parent="1" vertex="1">
          <mxGeometry x="230" y="320" width="30" height="80" as="geometry" />
        </mxCell>
        <mxCell id="S2aKsC0YRiiLuyDRzjJa-30" value="" style="endArrow=none;dashed=1;html=1;dashPattern=1 3;strokeWidth=2;rounded=0;" parent="1" edge="1">
          <mxGeometry width="50" height="50" relative="1" as="geometry">
            <mxPoint x="525" y="540" as="sourcePoint" />
            <mxPoint x="525" y="380" as="targetPoint" />
          </mxGeometry>
        </mxCell>
        <mxCell id="S2aKsC0YRiiLuyDRzjJa-31" value="" style="rounded=0;whiteSpace=wrap;html=1;fillColor=default;strokeColor=#b85450;strokeWidth=2;" parent="1" vertex="1">
          <mxGeometry x="510" y="320" width="30" height="80" as="geometry" />
        </mxCell>
        <mxCell id="S2aKsC0YRiiLuyDRzjJa-32" value="" style="endArrow=classic;html=1;rounded=0;exitX=1;exitY=0.25;exitDx=0;exitDy=0;entryX=0;entryY=0.25;entryDx=0;entryDy=0;" parent="1" source="S2aKsC0YRiiLuyDRzjJa-28" target="S2aKsC0YRiiLuyDRzjJa-31" edge="1">
          <mxGeometry width="50" height="50" relative="1" as="geometry">
            <mxPoint x="260" y="350" as="sourcePoint" />
            <mxPoint x="310" y="300" as="targetPoint" />
          </mxGeometry>
        </mxCell>
        <mxCell id="S2aKsC0YRiiLuyDRzjJa-33" value="http sse" style="edgeLabel;html=1;align=center;verticalAlign=middle;resizable=0;points=[];" parent="S2aKsC0YRiiLuyDRzjJa-32" vertex="1" connectable="0">
          <mxGeometry x="-0.096" y="1" relative="1" as="geometry">
            <mxPoint as="offset" />
          </mxGeometry>
        </mxCell>
        <mxCell id="S2aKsC0YRiiLuyDRzjJa-34" value="" style="endArrow=classic;html=1;rounded=0;exitX=0;exitY=0.75;exitDx=0;exitDy=0;" parent="1" source="S2aKsC0YRiiLuyDRzjJa-31" edge="1">
          <mxGeometry width="50" height="50" relative="1" as="geometry">
            <mxPoint x="380" y="380" as="sourcePoint" />
            <mxPoint x="260" y="380" as="targetPoint" />
          </mxGeometry>
        </mxCell>
        <mxCell id="S2aKsC0YRiiLuyDRzjJa-45" value="response" style="edgeLabel;html=1;align=center;verticalAlign=middle;resizable=0;points=[];" parent="S2aKsC0YRiiLuyDRzjJa-34" vertex="1" connectable="0">
          <mxGeometry x="0.16" relative="1" as="geometry">
            <mxPoint as="offset" />
          </mxGeometry>
        </mxCell>
        <mxCell id="S2aKsC0YRiiLuyDRzjJa-37" value="" style="endArrow=none;dashed=1;html=1;dashPattern=1 3;strokeWidth=2;rounded=0;" parent="1" target="S2aKsC0YRiiLuyDRzjJa-36" edge="1">
          <mxGeometry width="50" height="50" relative="1" as="geometry">
            <mxPoint x="245" y="540" as="sourcePoint" />
            <mxPoint x="245" y="400" as="targetPoint" />
          </mxGeometry>
        </mxCell>
        <mxCell id="S2aKsC0YRiiLuyDRzjJa-36" value="" style="rounded=0;whiteSpace=wrap;html=1;fillColor=default;strokeColor=#b85450;strokeWidth=2;" parent="1" vertex="1">
          <mxGeometry x="230" y="430" width="30" height="70" as="geometry" />
        </mxCell>
        <mxCell id="S2aKsC0YRiiLuyDRzjJa-38" value="" style="endArrow=none;dashed=1;html=1;dashPattern=1 3;strokeWidth=2;rounded=0;" parent="1" target="S2aKsC0YRiiLuyDRzjJa-18" edge="1">
          <mxGeometry width="50" height="50" relative="1" as="geometry">
            <mxPoint x="675" y="540" as="sourcePoint" />
            <mxPoint x="674.5" y="140" as="targetPoint" />
          </mxGeometry>
        </mxCell>
        <mxCell id="S2aKsC0YRiiLuyDRzjJa-18" value="" style="rounded=0;whiteSpace=wrap;html=1;fillColor=default;strokeColor=#b85450;strokeWidth=2;" parent="1" vertex="1">
          <mxGeometry x="660" y="430" width="30" height="70" as="geometry" />
        </mxCell>
        <mxCell id="S2aKsC0YRiiLuyDRzjJa-39" value="" style="endArrow=classic;html=1;rounded=0;exitX=1;exitY=0.25;exitDx=0;exitDy=0;" parent="1" edge="1">
          <mxGeometry width="50" height="50" relative="1" as="geometry">
            <mxPoint x="260" y="450" as="sourcePoint" />
            <mxPoint x="658" y="450" as="targetPoint" />
          </mxGeometry>
        </mxCell>
        <mxCell id="S2aKsC0YRiiLuyDRzjJa-44" value="http" style="edgeLabel;html=1;align=center;verticalAlign=middle;resizable=0;points=[];" parent="S2aKsC0YRiiLuyDRzjJa-39" vertex="1" connectable="0">
          <mxGeometry x="0.0552" y="3" relative="1" as="geometry">
            <mxPoint as="offset" />
          </mxGeometry>
        </mxCell>
        <mxCell id="S2aKsC0YRiiLuyDRzjJa-41" value="" style="endArrow=classic;html=1;rounded=0;exitX=0;exitY=0.75;exitDx=0;exitDy=0;entryX=1;entryY=0.75;entryDx=0;entryDy=0;" parent="1" source="S2aKsC0YRiiLuyDRzjJa-18" target="S2aKsC0YRiiLuyDRzjJa-36" edge="1">
          <mxGeometry width="50" height="50" relative="1" as="geometry">
            <mxPoint x="510" y="480" as="sourcePoint" />
            <mxPoint x="260" y="480" as="targetPoint" />
          </mxGeometry>
        </mxCell>
        <mxCell id="S2aKsC0YRiiLuyDRzjJa-42" value="response" style="edgeLabel;html=1;align=center;verticalAlign=middle;resizable=0;points=[];" parent="S2aKsC0YRiiLuyDRzjJa-41" vertex="1" connectable="0">
          <mxGeometry x="-0.1167" y="-1" relative="1" as="geometry">
            <mxPoint as="offset" />
          </mxGeometry>
        </mxCell>
        <mxCell id="S2aKsC0YRiiLuyDRzjJa-48" value="" style="endArrow=classic;html=1;rounded=0;" parent="1" edge="1">
          <mxGeometry width="50" height="50" relative="1" as="geometry">
            <mxPoint x="230" y="480" as="sourcePoint" />
            <mxPoint x="120" y="480" as="targetPoint" />
          </mxGeometry>
        </mxCell>
        <mxCell id="S2aKsC0YRiiLuyDRzjJa-49" value="response" style="edgeLabel;html=1;align=center;verticalAlign=middle;resizable=0;points=[];" parent="S2aKsC0YRiiLuyDRzjJa-48" vertex="1" connectable="0">
          <mxGeometry x="0.16" relative="1" as="geometry">
            <mxPoint as="offset" />
          </mxGeometry>
        </mxCell>
      </root>
    </mxGraphModel>
  </diagram>
</mxfile>
